<?xml version="1.0" standalone="no"?>
<svg
  width="600"
  height="600"
  viewBox="0 0 600 600"
  xmlns="http://www.w3.org/2000/svg"
>
  <g transform="translate(300,300)">
    <path d="M150.4,-197.9C188,-179.7,206.7,-126.5,224.9,-72.6C243.2,-18.6,260.9,35.9,247.2,81.1C233.6,126.2,188.5,161.8,142.1,175.7C95.6,189.6,47.8,181.8,2.3,178.7C-43.3,175.6,-86.6,177.2,-119.1,158.8C-151.6,140.3,-173.3,101.8,-175.4,64.3C-177.5,26.8,-160.1,-9.8,-155.3,-58.5C-150.6,-107.2,-158.4,-168.1,-134.7,-190.7C-110.9,-213.3,-55.4,-197.7,0.5,-198.3C56.4,-199,112.9,-216,150.4,-197.9Z" fill="#8ed1fc" />
  </g>
</svg>
  